<?xml version="1.0" encoding="UTF-8"?>
<svg version="1.1" xmlns="http://www.w3.org/2000/svg" width="200" height="50">
<path d="M0 0 C66 0 132 0 200 0 C200 16.5 200 33 200 50 C134 50 68 50 0 50 C0 33.5 0 17 0 0 Z " fill="#FDFDFD" transform="translate(0,0)"/>
<path d="M0 0 C3.63 0 7.26 0 11 0 C11 0.99 11 1.98 11 3 C11.99 3 12.98 3 14 3 C14 4.98 14 6.96 14 9 C13.01 9 12.02 9 11 9 C11 9.66 11 10.32 11 11 C8.03 11 5.06 11 2 11 C2 11.99 2 12.98 2 14 C1.34 14 0.68 14 0 14 C0 9.38 0 4.76 0 0 Z " fill="#AEBC7B" transform="translate(141,17)"/>
<path d="M0 0 C3.63 0 7.26 0 11 0 C11 0.99 11 1.98 11 3 C11.99 3 12.98 3 14 3 C14 4.98 14 6.96 14 9 C13.01 9 12.02 9 11 9 C11 9.66 11 10.32 11 11 C8.03 11 5.06 11 2 11 C2 11.99 2 12.98 2 14 C1.34 14 0.68 14 0 14 C0 9.38 0 4.76 0 0 Z " fill="#638EE8" transform="translate(29,17)"/>
<path d="M0 0 C3.63 0 7.26 0 11 0 C11 0.99 11 1.98 11 3 C7.7 3 4.4 3 1 3 C1 3.66 1 4.32 1 5 C3.64 5 6.28 5 9 5 C9 5.99 9 6.98 9 8 C9.99 8 10.98 8 12 8 C12 8.99 12 9.98 12 11 C11.01 11 10.02 11 9 11 C9 11.99 9 12.98 9 14 C5.04 14 1.08 14 -3 14 C-3 13.01 -3 12.02 -3 11 C0.63 11 4.26 11 8 11 C8 10.34 8 9.68 8 9 C5.36 9 2.72 9 0 9 C0 8.01 0 7.02 0 6 C-0.99 6 -1.98 6 -3 6 C-3 5.01 -3 4.02 -3 3 C-2.01 3 -1.02 3 0 3 C0 2.01 0 1.02 0 0 Z " fill="#A0AF65" transform="translate(160,17)"/>
<path d="M0 0 C4.62 0 9.24 0 14 0 C14 0.99 14 1.98 14 3 C10.37 3 6.74 3 3 3 C3 3.99 3 4.98 3 6 C5.64 6 8.28 6 11 6 C11 6.66 11 7.32 11 8 C8.36 8 5.72 8 3 8 C3 8.99 3 9.98 3 11 C6.63 11 10.26 11 14 11 C14 11.99 14 12.98 14 14 C9.38 14 4.76 14 0 14 C0 9.38 0 4.76 0 0 Z " fill="#8D9D4A" transform="translate(174,17)"/>
<path d="M0 0 C4.62 0 9.24 0 14 0 C14 0.99 14 1.98 14 3 C10.37 3 6.74 3 3 3 C3 3.99 3 4.98 3 6 C5.64 6 8.28 6 11 6 C11 6.66 11 7.32 11 8 C8.36 8 5.72 8 3 8 C3 8.99 3 9.98 3 11 C6.63 11 10.26 11 14 11 C14 11.99 14 12.98 14 14 C9.38 14 4.76 14 0 14 C0 9.38 0 4.76 0 0 Z " fill="#784E9F" transform="translate(90,17)"/>
<path d="M0 0 C4.62 0 9.24 0 14 0 C14 0.99 14 1.98 14 3 C10.04 3 6.08 3 2 3 C2 3.99 2 4.98 2 6 C4.97 6 7.94 6 11 6 C11 6.66 11 7.32 11 8 C8.03 8 5.06 8 2 8 C2 8.99 2 9.98 2 11 C5.96 11 9.92 11 14 11 C14 11.99 14 12.98 14 14 C9.38 14 4.76 14 0 14 C0 9.38 0 4.76 0 0 Z " fill="#85A74E" transform="translate(124,17)"/>
<path d="M0 0 C3.63 0 7.26 0 11 0 C11 0.99 11 1.98 11 3 C8.36 3 5.72 3 3 3 C3 4.98 3 6.96 3 9 C5.64 9 8.28 9 11 9 C11 9.66 11 10.32 11 11 C8.36 11 5.72 11 3 11 C3 11.99 3 12.98 3 14 C2.01 14 1.02 14 0 14 C0 9.38 0 4.76 0 0 Z " fill="#4569D5" transform="translate(45,17)"/>
<path d="M0 0 C0.33 0.99 0.66 1.98 1 3 C1.66 3 2.32 3 3 3 C3 4.98 3 6.96 3 9 C2.34 9 1.68 9 1 9 C1 9.66 1 10.32 1 11 C1.66 11 2.32 11 3 11 C3 11.99 3 12.98 3 14 C2.01 14 1.02 14 0 14 C0 12.35 0 10.7 0 9 C-2.64 9 -5.28 9 -8 9 C-8 7.02 -8 5.04 -8 3 C-5.36 3 -2.72 3 0 3 C0 2.01 0 1.02 0 0 Z " fill="#7588D9" transform="translate(56,17)"/>
<path d="M0 0 C2.97 0 5.94 0 9 0 C9 0.99 9 1.98 9 3 C8.01 3 7.02 3 6 3 C6 5.64 6 8.28 6 11 C6.99 11 7.98 11 9 11 C9 11.99 9 12.98 9 14 C6.03 14 3.06 14 0 14 C0 13.01 0 12.02 0 11 C0.99 11 1.98 11 3 11 C3 8.36 3 5.72 3 3 C2.01 3 1.02 3 0 3 C0 2.01 0 1.02 0 0 Z " fill="#5962C3" transform="translate(62,17)"/>
<path d="M0 0 C4.62 0 9.24 0 14 0 C14 0.99 14 1.98 14 3 C12.35 3 10.7 3 9 3 C9 6.63 9 10.26 9 14 C8.01 14 7.02 14 6 14 C6 10.37 6 6.74 6 3 C4.02 3 2.04 3 0 3 C0 2.01 0 1.02 0 0 Z " fill="#6D5FB6" transform="translate(73,17)"/>
<path d="M0 0 C3.3 0 6.6 0 10 0 C10 0.66 10 1.32 10 2 C7.36 2 4.72 2 2 2 C2 4.31 2 6.62 2 9 C4.97 9 7.94 9 11 9 C11 9.66 11 10.32 11 11 C8.03 11 5.06 11 2 11 C2 11.99 2 12.98 2 14 C1.34 14 0.68 14 0 14 C0 9.38 0 4.76 0 0 Z " fill="#8BA144" transform="translate(141,17)"/>
<path d="M0 0 C3.3 0 6.6 0 10 0 C10 0.66 10 1.32 10 2 C7.36 2 4.72 2 2 2 C2 4.31 2 6.62 2 9 C4.97 9 7.94 9 11 9 C11 9.66 11 10.32 11 11 C8.03 11 5.06 11 2 11 C2 11.99 2 12.98 2 14 C1.34 14 0.68 14 0 14 C0 9.38 0 4.76 0 0 Z " fill="#1B61E5" transform="translate(29,17)"/>
<path d="M0 0 C0.33 0.66 0.66 1.32 1 2 C1.99 2 2.98 2 4 2 C4 2.99 4 3.98 4 5 C3.01 5 2.02 5 1 5 C1 5.99 1 6.98 1 8 C-2.96 8 -6.92 8 -11 8 C-11 7.01 -11 6.02 -11 5 C-7.37 5 -3.74 5 0 5 C0 4.34 0 3.68 0 3 C-2.64 3 -5.28 3 -8 3 C-8 2.67 -8 2.34 -8 2 C-5.36 2 -2.72 2 0 2 C0 1.34 0 0.68 0 0 Z " fill="#A9B674" transform="translate(168,23)"/>
<path d="M0 0 C0.33 0 0.66 0 1 0 C1.22786458 1.98567708 1.45572917 3.97135417 1.68359375 5.95703125 C1.97170735 8.19396393 1.97170735 8.19396393 3 11 C6.63 11 10.26 11 14 11 C14 11.99 14 12.98 14 14 C9.38 14 4.76 14 0 14 C0 9.38 0 4.76 0 0 Z " fill="#96A659" transform="translate(174,17)"/>
<path d="M0 0 C0.33 0 0.66 0 1 0 C1.22786458 1.98567708 1.45572917 3.97135417 1.68359375 5.95703125 C1.97170735 8.19396393 1.97170735 8.19396393 3 11 C6.63 11 10.26 11 14 11 C14 11.99 14 12.98 14 14 C9.38 14 4.76 14 0 14 C0 9.38 0 4.76 0 0 Z " fill="#835DA7" transform="translate(90,17)"/>
<path d="M0 0 C0.99 0 1.98 0 3 0 C3 0.66 3 1.32 3 2 C5.64 2 8.28 2 11 2 C11 2.99 11 3.98 11 5 C11.99 5 12.98 5 14 5 C14 5.99 14 6.98 14 8 C13.01 8 12.02 8 11 8 C11 7.34 11 6.68 11 6 C8.36 6 5.72 6 3 6 C2.67 5.01 2.34 4.02 2 3 C1.34 3 0.68 3 0 3 C0 2.01 0 1.02 0 0 Z " fill="#3983F5" transform="translate(12,20)"/>
<path d="M0 0 C2.64 0 5.28 0 8 0 C8 1.65 8 3.3 8 5 C5.36 5 2.72 5 0 5 C0 3.35 0 1.7 0 0 Z " fill="#FBFCF9" transform="translate(144,20)"/>
<path d="M0 0 C2.64 0 5.28 0 8 0 C8 1.65 8 3.3 8 5 C5.36 5 2.72 5 0 5 C0 3.35 0 1.7 0 0 Z " fill="#F8F9FD" transform="translate(48,20)"/>
<path d="M0 0 C2.64 0 5.28 0 8 0 C8 1.65 8 3.3 8 5 C5.36 5 2.72 5 0 5 C0 3.35 0 1.7 0 0 Z " fill="#F8FAFE" transform="translate(32,20)"/>
<path d="M0 0 C0.99 0 1.98 0 3 0 C3 2.64 3 5.28 3 8 C3.99 8 4.98 8 6 8 C6 8.99 6 9.98 6 11 C5.01 11 4.02 11 3 11 C3 10.34 3 9.68 3 9 C2.01 9 1.02 9 0 9 C0 6.03 0 3.06 0 0 Z " fill="#81B260" transform="translate(107,17)"/>
<path d="M0 0 C0.33 0 0.66 0 1 0 C1 2.64 1 5.28 1 8 C1.99 8 2.98 8 4 8 C4 8.99 4 9.98 4 11 C1.03 11 -1.94 11 -5 11 C-5 10.01 -5 9.02 -5 8 C-3.35 8 -1.7 8 0 8 C0 5.36 0 2.72 0 0 Z " fill="#6870C8" transform="translate(67,20)"/>
<path d="M0 0 C3.63 0 7.26 0 11 0 C11 0.99 11 1.98 11 3 C7.37 3 3.74 3 0 3 C0 2.01 0 1.02 0 0 Z " fill="#2177F7" transform="translate(12,28)"/>
<path d="M0 0 C3.63 0 7.26 0 11 0 C11 0.99 11 1.98 11 3 C7.37 3 3.74 3 0 3 C0 2.01 0 1.02 0 0 Z " fill="#2677F4" transform="translate(15,17)"/>
<path d="M0 0 C0.99 0 1.98 0 3 0 C3 2.64 3 5.28 3 8 C2.01 8 1.02 8 0 8 C0 5.36 0 2.72 0 0 Z " fill="#80AB54" transform="translate(118,17)"/>
<path d="M0 0 C3.96 0 7.92 0 12 0 C12 0.99 12 1.98 12 3 C10.68 3 9.36 3 8 3 C8 2.34 8 1.68 8 1 C5.69 1 3.38 1 1 1 C0.67 1.66 0.34 2.32 0 3 C0 2.01 0 1.02 0 0 Z " fill="#C6CFA1" transform="translate(143,28)"/>
<path d="M0 0 C0.99 0 1.98 0 3 0 C3 0.66 3 1.32 3 2 C5.64 2 8.28 2 11 2 C11 2.33 11 2.66 11 3 C8.36 3 5.72 3 3 3 C2.67 3.66 2.34 4.32 2 5 C2 4.34 2 3.68 2 3 C1.34 3 0.68 3 0 3 C0 2.01 0 1.02 0 0 Z " fill="#6FA7FB" transform="translate(12,20)"/>
</svg>
